<svg width="422" height="422" viewBox="0 0 422 422" fill="#000000" xmlns="http://www.w3.org/2000/svg">
    <path fill-rule="evenodd" clip-rule="evenodd" d="M301.74 107.195L306.31 116.095H306.3C268.3 135.595 207.23 153.845 161.1 159.485L159.89 149.555C205 144.045 264.66 126.235 301.74 107.195ZM119.91 314.805L115.34 305.905H115.35C153.35 286.405 214.42 268.155 260.55 262.515L261.76 272.445C216.65 277.955 156.99 295.765 119.91 314.805ZM393.77 191.915C378.47 198.325 364.66 204.935 352.6 211.535L357.98 119.785L348 119.195L342.23 217.455C310.46 236.465 293.98 254.875 299.18 267.575C301.58 273.435 307.63 276.375 316.49 276.375C324.4 276.375 334.55 274.025 346.33 269.305L349.28 268.125L351.91 223.265C363.95 216.385 378.99 208.935 397.64 201.125L393.78 191.905L393.77 191.915ZM339.66 261.175C319.9 268.535 309.59 266.625 308.43 263.795C306.84 259.915 313.91 247.065 341.52 229.525L339.66 261.175ZM317.9 220.665C317.15 218.615 316.42 216.485 315.8 214.165V214.155C312.37 218.745 308.2 222.205 303.45 224.165C300.66 225.325 297.82 225.895 295.06 225.895C290.73 225.895 286.58 224.495 283.03 221.745C274.83 215.395 271.37 202.935 273.53 187.565H273.62C273.63 187.545 273.63 187.485 273.63 187.485H273.55C275.49 175.015 273.53 168.225 271.17 161.815L280.56 158.365C281.32 160.415 282.04 162.545 282.66 164.865C286.09 160.275 290.26 156.815 295.01 154.855C302.17 151.885 309.62 152.775 315.43 157.275C323.63 163.625 327.09 176.085 324.93 191.455H324.84C324.83 191.485 324.83 191.545 324.83 191.545H324.91C322.97 204.015 324.93 210.805 327.29 217.215L317.9 220.665ZM283.15 191.405C282.14 201.825 284.32 210.115 289.15 213.855V213.865C292.09 216.145 295.81 216.535 299.63 214.955C309.1 211.035 313.93 198.275 315.3 187.635C316.31 177.215 314.13 168.925 309.3 165.185C306.36 162.905 302.64 162.515 298.82 164.095C289.35 168.005 284.52 180.765 283.15 191.405ZM229.42 216.335C223.54 210.475 224.08 201.565 225.56 195.115C227.16 188.145 231.15 182.095 236.21 178.935C238.47 177.525 242 176.035 246 176.965C248.64 177.575 251.03 179.175 252.9 181.585L260.79 175.435C257.49 171.195 253.16 168.355 248.26 167.215C242.53 165.885 236.37 167.035 230.91 170.445C223.53 175.055 218.03 183.225 215.81 192.865C212.91 205.465 215.23 216.315 222.36 223.415C228.06 229.085 236.4 231.955 246.56 231.955L232.94 245.545L240 252.625L263.93 228.745L259.26 220.335C245.78 223.495 235.18 222.065 229.42 216.325V216.335ZM196.08 226.885C197.56 220.435 198.1 211.525 192.22 205.665V205.675C186.46 199.935 175.86 198.505 162.38 201.665L157.71 193.255L181.64 169.375L188.7 176.455L175.08 190.045C185.23 190.015 193.58 192.905 199.28 198.585C206.41 205.685 208.73 216.535 205.83 229.135C203.61 238.775 198.11 246.945 190.73 251.555C186.75 254.045 182.4 255.325 178.12 255.325C176.53 255.325 174.94 255.145 173.38 254.785C168.48 253.645 164.15 250.805 160.85 246.565L168.74 240.415C170.62 242.825 173 244.425 175.64 245.035C179.64 245.955 183.17 244.475 185.43 243.065C190.49 239.905 194.48 233.855 196.08 226.885ZM126.64 267.155C131.39 265.195 135.56 261.735 138.99 257.145C139.61 259.465 140.34 261.595 141.09 263.645L150.47 260.195C148.11 253.785 146.15 246.995 148.09 234.525H148.01C148.01 234.525 148.01 234.465 148.02 234.445H148.11C150.27 219.075 146.81 206.615 138.61 200.265C132.8 195.765 125.35 194.875 118.189 197.845C113.439 199.805 109.269 203.265 105.839 207.855C105.219 205.535 104.489 203.405 103.739 201.355L94.3594 204.805C96.7194 211.215 98.6794 218.005 96.7394 230.475H96.8194C96.8194 230.475 96.8194 230.535 96.8094 230.565H96.7194C94.5594 245.935 98.0194 258.395 106.219 264.745C109.769 267.495 113.919 268.895 118.249 268.895C121.009 268.895 123.849 268.325 126.64 267.165V267.155ZM106.339 234.375C107.709 223.735 112.539 210.975 122.009 207.055C125.83 205.475 129.55 205.865 132.49 208.145C137.32 211.885 139.5 220.175 138.49 230.595C137.12 241.235 132.29 253.995 122.819 257.905C118.999 259.485 115.279 259.095 112.339 256.815C107.509 253.075 105.329 244.785 106.339 234.365V234.375ZM75.31 152.685C100.29 142.685 117.92 143.335 122.46 154.425H122.44C127.64 167.125 111.16 185.535 79.39 204.545L73.62 302.805L63.64 302.215L69.03 210.465C56.97 217.065 43.16 223.675 27.86 230.085L24 220.865C42.65 213.055 57.69 205.605 69.73 198.725L72.36 153.865L75.31 152.685ZM81.98 160.835L80.12 192.485C107.73 174.945 114.8 162.095 113.21 158.215C112.05 155.385 101.74 153.475 81.98 160.835Z"/>
    <style>
        path { fill: #000000; }
        @media (prefers-color-scheme: dark) {
            path { fill: #FFFFFF; }
        }
    </style>
</svg>
