<?xml version="1.0" standalone="no"?>
<!DOCTYPE svg PUBLIC "-//W3C//DTD SVG 20010904//EN"
 "http://www.w3.org/TR/2001/REC-SVG-20010904/DTD/svg10.dtd">
<svg version="1.0" xmlns="http://www.w3.org/2000/svg"
 width="422.000000pt" height="422.000000pt" viewBox="0 0 422.000000 422.000000"
 preserveAspectRatio="xMidYMid meet">
<metadata>
Created by potrace 1.14, written by Peter Selinger 2001-2017
</metadata>
<g transform="translate(0.000000,422.000000) scale(0.100000,-0.100000)"
fill="#000000" stroke="none">
<path d="M2935 3110 c-120 -58 -440 -182 -504 -195 -9 -2 -28 -8 -43 -14 -29
-11 -307 -87 -348 -95 -37 -7 -61 -13 -105 -24 -22 -6 -56 -13 -75 -16 -19 -3
-57 -10 -85 -15 -27 -5 -75 -12 -105 -16 -30 -4 -59 -10 -63 -15 -13 -11 3
-99 17 -95 6 2 31 6 56 9 41 6 113 18 180 31 14 3 41 8 60 11 174 32 553 141
780 226 115 43 346 142 359 154 2 2 -6 24 -19 49 -13 25 -24 45 -24 44 -1 0
-37 -18 -81 -39z"/>
<path d="M3479 3001 c-1 -14 -2 -39 -4 -56 -1 -16 -5 -84 -9 -150 -4 -66 -9
-154 -11 -195 -8 -128 -14 -231 -20 -345 -10 -175 -13 -206 -16 -209 -2 -1
-40 -27 -84 -56 -165 -109 -284 -219 -327 -303 -28 -55 -29 -127 -2 -164 64
-88 227 -88 449 1 34 14 41 21 41 44 0 25 10 209 19 356 2 32 8 62 12 67 12
11 319 162 386 189 31 13 57 30 57 37 0 11 -25 69 -35 81 -2 2 -41 -15 -180
-78 -27 -12 -90 -43 -139 -67 l-88 -44 7 128 c3 70 8 153 10 183 2 30 6 107 9
170 4 63 9 144 11 180 2 36 7 107 10 158 4 50 3 92 -2 93 -4 0 -27 2 -50 4
-40 2 -43 1 -44 -24z m-62 -1088 c-3 -5 -8 -66 -11 -138 -7 -139 -10 -162 -17
-169 -13 -14 -167 -46 -218 -46 -121 0 -116 58 19 191 75 75 248 197 227 162z"/>
<path d="M955 2753 c-38 -7 -92 -21 -120 -30 -27 -10 -52 -18 -55 -18 -49 -13
-60 -25 -61 -72 -1 -57 -8 -191 -14 -248 -2 -22 -4 -66 -4 -97 l-1 -57 -177
-88 c-98 -48 -202 -98 -231 -110 l-53 -22 16 -38 c9 -21 19 -41 23 -45 8 -8
94 28 267 113 72 35 134 65 138 67 5 3 6 -36 3 -84 -9 -135 -15 -230 -21 -334
-3 -52 -7 -124 -10 -160 -2 -36 -7 -117 -11 -180 -3 -63 -7 -117 -9 -120 -2
-3 0 -11 4 -18 9 -14 87 -27 94 -15 3 4 8 64 12 133 4 69 9 145 10 170 1 25 6
101 9 170 4 69 9 148 11 175 4 60 18 294 18 313 0 8 37 37 81 67 107 70 200
145 257 207 191 205 99 373 -176 321z m175 -132 c0 -31 -38 -90 -94 -146 -55
-54 -218 -175 -227 -169 -4 2 -6 30 -4 62 2 31 7 97 10 147 3 49 9 93 13 96
14 13 117 40 177 46 33 3 62 7 63 8 2 2 17 -1 33 -7 22 -8 29 -16 29 -37z"/>
<path d="M2965 2678 c-38 -14 -112 -66 -119 -84 -8 -22 -23 -16 -30 11 -7 29
-20 31 -69 10 l-35 -15 15 -47 c8 -29 13 -79 12 -123 -9 -270 -5 -299 49 -382
36 -55 117 -93 182 -85 58 7 98 26 149 73 l39 34 12 -29 12 -29 41 16 c23 9
44 17 45 18 2 2 -3 25 -11 53 -11 37 -13 79 -10 149 8 163 6 219 -13 279 -39
123 -158 190 -269 151z m108 -100 c79 -41 103 -178 59 -325 -78 -256 -302
-251 -302 7 0 195 137 375 243 318z"/>
<path d="M2405 2550 c-60 -9 -109 -37 -155 -87 -137 -147 -137 -400 -1 -501
30 -22 143 -64 164 -61 52 6 50 -2 -16 -69 l-67 -68 35 -34 35 -34 120 119
119 119 -22 40 c-20 37 -26 40 -52 36 -17 -3 -66 -5 -110 -4 -86 0 -123 13
-163 57 -24 26 -49 98 -46 132 10 117 56 205 126 241 39 20 95 17 129 -7 l30
-21 40 28 40 27 -23 25 c-46 48 -115 72 -183 62z"/>
<path d="M1692 2406 c-120 -121 -120 -121 -81 -177 17 -25 20 -25 75 -16 71
13 171 -2 214 -33 86 -61 94 -203 18 -323 -51 -79 -145 -111 -201 -67 -32 25
-35 25 -76 -9 l-34 -28 29 -27 c68 -64 159 -75 249 -31 101 49 172 166 182
298 13 177 -83 300 -253 323 -27 3 -50 7 -52 9 -2 2 20 25 48 51 74 69 78 80
44 115 -15 16 -33 29 -38 28 -6 0 -62 -51 -124 -113z"/>
<path d="M1210 2251 c-44 -14 -84 -38 -117 -71 l-33 -32 -10 26 c-11 29 -19
31 -67 14 -36 -13 -38 -17 -22 -68 6 -19 9 -73 8 -120 -6 -237 -3 -273 20
-325 72 -161 236 -191 363 -68 l38 37 10 -31 11 -31 42 16 c23 9 44 17 46 18
2 2 -4 30 -12 63 -11 43 -14 84 -10 139 10 123 8 224 -5 269 -15 52 -67 121
-109 145 -36 21 -116 31 -153 19z m100 -106 c120 -62 89 -378 -46 -481 -48
-37 -112 -39 -149 -4 -105 99 -38 426 99 486 41 17 61 17 96 -1z"/>
<path d="M2545 1588 c-164 -27 -294 -53 -400 -79 -66 -17 -129 -32 -139 -34
-79 -17 -442 -135 -566 -185 -132 -52 -280 -124 -280 -136 0 -7 9 -29 21 -48
l20 -34 69 34 c100 49 303 129 470 184 133 44 387 116 449 127 14 2 51 10 81
18 30 7 71 16 90 19 19 3 60 10 90 16 30 6 78 13 105 16 28 4 53 8 56 10 8 4
-1 87 -9 95 -4 3 -29 2 -57 -3z"/>
</g>
</svg>
